<?xml version="1.0" encoding="UTF-8"?>
<svg id="Calque_2" data-name="Calque 2" xmlns="http://www.w3.org/2000/svg" viewBox="0 0 712.17 306.8">
  <defs>
    <style>
      .cls-1 {
        stroke: #000;
        stroke-miterlimit: 10;
      }

      .cls-2 {
        stroke-width: 0px;
      }
    </style>
  </defs>
  <g id="Calque_1-2" data-name="Calque 1">
    <g>
      <g>
        <path class="cls-1" d="m133.7,269.07c4.96,3.55,2.04,11.37-4.03,10.83-31.49-2.81-61.99-17.31-84.42-43.01-22.43-25.71-32.65-57.89-31.15-89.47.29-6.09,8.44-7.92,11.28-2.52.04.07.07.13.11.2.5.96.74,2.03.69,3.11-1.3,28.5,7.96,57.53,28.2,80.74,20.24,23.21,47.74,36.32,76.16,38.9,1.08.1,2.11.48,2.99,1.1.06.04.12.09.18.13Z"/>
        <path class="cls-2" d="m265.2,179.8c-1.28,6.04-3,12.01-5.16,17.84-1.67,4.53-3.62,8.97-5.82,13.32-7.17,14.11-17.11,27.11-29.77,38.16-12.66,11.04-26.89,19.13-41.84,24.31-3.85,1.34-7.75,2.48-11.68,3.43-1.48.36-3.03.14-4.36-.6-.05-.03-.11-.06-.16-.09-4.75-2.66-3.74-9.76,1.55-11.04,3.34-.8,6.65-1.76,9.92-2.87,13.81-4.68,26.95-12.08,38.62-22.26,11.67-10.18,20.79-22.2,27.3-35.25,3.9-7.82,6.87-16,8.88-24.38,1.59-6.61,2.59-13.35,2.99-20.12,1.74-29.03-7.48-58.74-28.11-82.39-20.63-23.65-48.81-36.82-77.81-39.04-6.76-.52-13.57-.44-20.34.24-8.58.86-17.09,2.68-25.37,5.48-13.81,4.68-26.95,12.08-38.62,22.26-11.67,10.18-20.79,22.2-27.3,35.25-1.54,3.09-2.94,6.24-4.19,9.43-1.98,5.07-9.16,5.1-11.14.03-.02-.06-.04-.11-.07-.17-.55-1.41-.56-2.98,0-4.4,1.47-3.77,3.14-7.47,4.98-11.11,7.17-14.11,17.11-27.11,29.77-38.16,12.66-11.04,26.89-19.13,41.84-24.31,4.6-1.6,9.27-2.92,13.98-3.96,6.07-1.35,12.21-2.24,18.38-2.69,38.46-2.79,77.7,11.89,105,43.18,27.3,31.29,36.52,72.18,28.53,109.89Z"/>
        <path class="cls-2" d="m264.21,294.69c-.07.06-.15.12-.22.18-24.15,20.81-67.72,13.46-113.74-14.8-6-3.68-12.03-7.72-18.08-12.1-20.29-14.69-40.62-33.21-59.58-54.94-18.96-21.73-34.54-44.39-46.34-66.48-3.52-6.58-6.7-13.11-9.53-19.56C-5.09,77.42-6.39,33.14,17.72,12.11c.07-.06.15-.12.22-.18,21.59-18.6,58.71-14.7,99.22,6.53,4.68,2.45,3.67,9.41-1.51,10.46-.13.03-.27.05-.4.08-1.28.26-2.6.05-3.75-.56-10.27-5.47-20.23-9.7-29.64-12.56-22.91-6.99-42.54-5.94-55.46,4.74-.24.2-.48.4-.72.61-.17.15-.34.3-.51.45-12.49,11.32-16.25,30.71-12.42,54.48,1.66,10.28,4.74,21.39,9.15,33.01,2.14,5.65,4.6,11.42,7.36,17.27,12.02,25.5,29.8,52.67,52.47,78.65,22.67,25.98,47.17,47.29,70.8,62.66,5.43,3.53,10.82,6.75,16.12,9.64,10.91,5.95,21.49,10.51,31.45,13.54,22.91,6.99,42.54,5.94,55.46-4.74.24-.2.48-.4.72-.61.17-.15.34-.3.51-.45,12.49-11.32,16.25-30.71,12.42-54.48-1.56-9.71-4.4-20.16-8.43-31.08-.45-1.22-.48-2.57-.05-3.8.05-.13.09-.26.14-.38,1.74-4.99,8.78-5.05,10.57-.08,15.59,43.16,14.35,80.57-7.21,99.38Z"/>
      </g>
      <g>
        <polygon class="cls-2" points="412.31 275.57 446.34 275.57 446.34 177.24 412.31 189.77 412.31 275.57"/>
        <polygon class="cls-2" points="399.14 135.81 361.12 135.81 361.12 44.96 327.09 44.96 327.09 160.37 399.14 160.37 399.14 135.81"/>
        <polygon class="cls-2" points="446.36 44.96 446.36 160.38 446.34 160.38 446.34 167.93 412.3 180.47 412.3 160.16 412.33 160.16 412.33 44.96 446.36 44.96"/>
        <polygon class="cls-2" points="545.15 110.27 499.84 44.96 465.81 44.96 465.81 160.37 499.84 160.37 499.84 95.87 545.15 160.37 579.18 160.37 579.18 44.96 545.15 44.96 545.15 110.27"/>
        <polygon class="cls-2" points="664.95 100.94 709.92 44.96 670.68 44.96 632.66 94.72 632.66 44.96 598.63 44.96 598.63 160.37 632.66 160.37 632.66 109.78 671.03 160.37 712.17 160.37 664.95 100.94"/>
        <path class="cls-2" d="m499,216.26c-4.86,0-9.15,1.06-12.87,3.19-3.72,2.13-6.37,5.19-7.97,9.18v-11.3h-4.69v53.33h4.69v-28.78c0-7.2,1.82-12.64,5.47-16.3,3.65-3.67,8.52-5.5,14.64-5.5s10.45,1.69,13.85,5.06c3.4,3.37,5.1,8.24,5.1,14.59v30.94h4.58v-31.23c0-7.66-2.12-13.44-6.35-17.33-4.24-3.89-9.72-5.84-16.46-5.84Z"/>
        <path class="cls-2" d="m545.25,213.61c0-4.45,1.06-7.66,3.18-9.62,2.12-1.96,5.89-2.95,11.3-2.95v-3.93c-6.81,0-11.7,1.36-14.69,4.08-2.99,2.72-4.48,6.86-4.48,12.42v3.73h-8.54v3.93h8.54v49.4h4.69v-49.4h14.69v-3.93h-14.69v-3.73Z"/>
        <rect class="cls-2" x="571.91" y="217.34" width="4.69" height="53.33"/>
        <path class="cls-2" d="m574.31,197.8c-1.11,0-2.05.36-2.81,1.08s-1.15,1.64-1.15,2.75c0,1.18.38,2.11,1.15,2.8.76.69,1.7,1.03,2.81,1.03s2.05-.34,2.81-1.03c.76-.69,1.15-1.62,1.15-2.8,0-1.11-.38-2.03-1.15-2.75-.77-.72-1.7-1.08-2.81-1.08Z"/>
        <path class="cls-2" d="m619.31,216.26c-4.86,0-9.15,1.06-12.87,3.19-3.72,2.13-6.37,5.19-7.97,9.18v-11.3h-4.69v53.33h4.69v-28.78c0-7.2,1.82-12.64,5.47-16.3,3.65-3.67,8.52-5.5,14.64-5.5s10.45,1.69,13.85,5.06c3.4,3.37,5.1,8.24,5.1,14.59v30.94h4.58v-31.23c0-7.66-2.12-13.44-6.35-17.33-4.24-3.89-9.72-5.84-16.46-5.84Z"/>
        <rect class="cls-2" x="658.69" y="217.34" width="4.69" height="53.33"/>
        <path class="cls-2" d="m661.08,197.8c-1.11,0-2.05.36-2.81,1.08s-1.15,1.64-1.15,2.75c0,1.18.38,2.11,1.15,2.8.76.69,1.7,1.03,2.81,1.03s2.05-.34,2.81-1.03c.76-.69,1.15-1.62,1.15-2.8,0-1.11-.38-2.03-1.15-2.75-.77-.72-1.7-1.08-2.81-1.08Z"/>
        <path class="cls-2" d="m687.54,203.79h-4.69v13.55h-8.54v3.83h8.54v35.26c0,5.11,1.16,8.76,3.49,10.95,2.33,2.2,5.95,3.29,10.89,3.29h7.08v-3.93h-6.35c-3.89,0-6.6-.74-8.12-2.21-1.53-1.47-2.29-4.17-2.29-8.1v-35.26h16.77v-3.83h-16.77v-13.55Z"/>
      </g>
    </g>
  </g>
</svg>