<?xml version="1.0" encoding="UTF-8"?>
<svg id="Calque_2" data-name="Calque 2" xmlns="http://www.w3.org/2000/svg" viewBox="0 0 284.23 309.3">
  <defs>
    <style>
      .cls-1 {
        fill: #fffb05;
      }

      .cls-1, .cls-2 {
        stroke-width: 0px;
      }

      .cls-2 {
        fill: #f4f4f4;
      }
    </style>
  </defs>
  <g id="Calque_1-2" data-name="Calque 1">
    <g>
      <path class="cls-2" d="m134.79,271.27c5,3.58,2.06,11.46-4.06,10.92-31.75-2.83-62.49-17.45-85.1-43.36-22.61-25.92-32.92-58.36-31.41-90.2.29-6.14,8.51-7.98,11.37-2.54.04.07.07.13.11.2.51.96.74,2.05.69,3.14-1.31,28.74,8.02,58,28.43,81.39,20.41,23.39,48.13,36.61,76.78,39.22,1.09.1,2.13.48,3.01,1.11.06.04.12.09.18.13Z"/>
      <g>
        <path class="cls-2" d="m267.36,181.27c-1.29,6.09-3.02,12.11-5.21,17.98-1.69,4.56-3.65,9.05-5.87,13.42-7.22,14.23-17.25,27.33-30.01,38.47-12.76,11.13-27.11,19.28-42.18,24.51-3.88,1.35-7.81,2.5-11.77,3.46-1.49.36-3.06.14-4.39-.6-.05-.03-.11-.06-.16-.09-4.79-2.68-3.78-9.84,1.56-11.13,3.36-.81,6.7-1.77,10-2.89,13.92-4.72,27.17-12.18,38.93-22.44,11.77-10.26,20.96-22.38,27.52-35.53,3.93-7.88,6.92-16.13,8.96-24.58,1.6-6.67,2.61-13.46,3.02-20.28,1.75-29.27-7.54-59.21-28.34-83.06-20.8-23.85-49.21-37.12-78.44-39.36-6.82-.52-13.68-.45-20.5.24-8.65.86-17.23,2.7-25.58,5.53-13.92,4.72-27.17,12.18-38.93,22.44-11.77,10.26-20.96,22.38-27.52,35.53-1.56,3.12-2.96,6.29-4.22,9.51-2,5.11-9.23,5.14-11.24.03-.02-.06-.04-.11-.07-.17-.56-1.43-.56-3.01,0-4.43,1.49-3.8,3.16-7.53,5.02-11.2,7.22-14.23,17.25-27.33,30.01-38.47,12.76-11.13,27.11-19.28,42.18-24.51,4.64-1.61,9.35-2.94,14.1-4,6.12-1.36,12.31-2.26,18.53-2.71,38.77-2.81,78.34,11.99,105.86,43.54,27.52,31.55,36.81,72.76,28.76,110.79Z"/>
        <path class="cls-1" d="m266.37,297.09c-.07.06-.15.13-.22.18-24.35,20.98-68.27,13.57-114.67-14.92-6.05-3.71-12.13-7.78-18.22-12.19-20.45-14.81-40.95-33.48-60.06-55.39-19.11-21.91-34.82-44.75-46.72-67.02-3.54-6.63-6.75-13.22-9.61-19.72C-5.13,78.05-6.44,33.41,17.86,12.21c.07-.06.15-.13.22-.18,21.77-18.75,59.19-14.82,100.03,6.58,4.72,2.47,3.7,9.49-1.53,10.55-.13.03-.27.05-.4.08-1.29.26-2.62.05-3.79-.57-10.36-5.52-20.4-9.78-29.88-12.67-23.09-7.04-42.89-5.99-55.91,4.78-.24.2-.49.41-.73.62-.17.15-.35.31-.52.46-12.59,11.41-16.38,30.96-12.52,54.92,1.67,10.37,4.77,21.56,9.22,33.28,2.16,5.69,4.64,11.51,7.42,17.41,12.12,25.71,30.04,53.1,52.89,79.29,22.85,26.2,47.55,47.67,71.37,63.17,5.47,3.56,10.9,6.81,16.25,9.72,11,6,21.67,10.59,31.71,13.65,23.09,7.04,42.89,5.99,55.91-4.78.24-.2.49-.41.73-.62.17-.15.35-.31.52-.46,12.59-11.41,16.38-30.96,12.52-54.92-1.58-9.79-4.43-20.32-8.5-31.33-.46-1.23-.49-2.59-.05-3.83.05-.13.09-.26.14-.39,1.76-5.03,8.85-5.09,10.66-.08,15.71,43.51,14.47,81.23-7.27,100.19Z"/>
        <g>
          <polygon class="cls-2" points="107.32 202.54 119.33 202.54 119.33 167.83 107.32 172.26 107.32 202.54"/>
          <polygon class="cls-2" points="102.67 153.21 89.25 153.21 89.25 121.14 77.24 121.14 77.24 161.87 102.67 161.87 102.67 153.21"/>
          <polygon class="cls-2" points="119.34 121.14 119.34 161.88 119.33 161.88 119.33 164.54 107.32 168.97 107.32 161.8 107.33 161.8 107.33 121.14 119.34 121.14"/>
          <polygon class="cls-2" points="154.21 144.19 138.22 121.14 126.2 121.14 126.2 161.87 138.22 161.87 138.22 139.11 154.21 161.87 166.22 161.87 166.22 121.14 154.21 121.14 154.21 144.19"/>
          <polygon class="cls-2" points="196.5 140.9 212.37 121.14 198.52 121.14 185.1 138.7 185.1 121.14 173.09 121.14 173.09 161.87 185.1 161.87 185.1 144.02 198.64 161.87 213.17 161.87 196.5 140.9"/>
          <path class="cls-2" d="m137.92,181.61c-1.72,0-3.23.38-4.54,1.13-1.31.75-2.25,1.83-2.81,3.24v-3.99h-1.65v18.83h1.65v-10.16c0-2.54.64-4.46,1.93-5.75,1.29-1.29,3.01-1.94,5.17-1.94s3.69.6,4.89,1.78c1.2,1.19,1.8,2.91,1.8,5.15v10.92h1.62v-11.03c0-2.7-.75-4.74-2.24-6.12-1.5-1.37-3.43-2.06-5.81-2.06Z"/>
          <path class="cls-2" d="m154.24,180.67c0-1.57.37-2.7,1.12-3.4s2.08-1.04,3.99-1.04v-1.39c-2.4,0-4.13.48-5.18,1.44-1.05.96-1.58,2.42-1.58,4.38v1.32h-3.02v1.39h3.02v17.44h1.65v-17.44h5.18v-1.39h-5.18v-1.32Z"/>
          <rect class="cls-2" x="163.66" y="181.99" width="1.65" height="18.83"/>
          <path class="cls-2" d="m164.5,175.09c-.39,0-.72.13-.99.38s-.4.58-.4.97c0,.42.13.74.4.99.27.24.6.36.99.36s.72-.12.99-.36c.27-.24.4-.57.4-.99,0-.39-.13-.72-.4-.97-.27-.25-.6-.38-.99-.38Z"/>
          <path class="cls-2" d="m180.39,181.61c-1.72,0-3.23.38-4.54,1.13-1.31.75-2.25,1.83-2.81,3.24v-3.99h-1.65v18.83h1.65v-10.16c0-2.54.64-4.46,1.93-5.75,1.29-1.29,3.01-1.94,5.17-1.94s3.69.6,4.89,1.78c1.2,1.19,1.8,2.91,1.8,5.15v10.92h1.62v-11.03c0-2.7-.75-4.74-2.24-6.12-1.5-1.37-3.43-2.06-5.81-2.06Z"/>
          <rect class="cls-2" x="194.29" y="181.99" width="1.65" height="18.83"/>
          <path class="cls-2" d="m195.13,175.09c-.39,0-.72.13-.99.38s-.4.58-.4.97c0,.42.13.74.4.99.27.24.6.36.99.36s.72-.12.99-.36c.27-.24.4-.57.4-.99,0-.39-.13-.72-.4-.97-.27-.25-.6-.38-.99-.38Z"/>
          <path class="cls-2" d="m204.47,177.2h-1.65v4.78h-3.02v1.35h3.02v12.45c0,1.8.41,3.09,1.23,3.87.82.78,2.1,1.16,3.84,1.16h2.5v-1.39h-2.24c-1.37,0-2.33-.26-2.87-.78-.54-.52-.81-1.47-.81-2.86v-12.45h5.92v-1.35h-5.92v-4.78Z"/>
        </g>
      </g>
    </g>
  </g>
</svg>